ply
format ascii 1.0
comment Created in Blender version 3.6.4
element vertex 14
property float x
property float y
property float z
property uchar red
property uchar green
property uchar blue
property uchar alpha
property float s
property float t
element face 6
property list uchar uint vertex_indices
end_header
1 1 1 16 6 254 255 0.625 0.5
-1 1 1 37 34 254 255 0.875 0.5
-1 -1 1 92 91 254 255 0.875 0.75
1 -1 1 14 2 254 255 0.625 0.75
1 -1 -1 254 254 254 255 0.375 0.75
-1 -1 1 92 91 254 255 0.625 1
-1 -1 -1 254 254 254 255 0.375 1
-1 -1 -1 254 254 254 255 0.375 0
-1 -1 1 92 91 254 255 0.625 0
-1 1 1 37 34 254 255 0.625 0.25
-1 1 -1 254 254 254 255 0.375 0.25
-1 1 -1 254 254 254 255 0.125 0.5
1 1 -1 254 254 254 255 0.375 0.5
-1 -1 -1 254 254 254 255 0.125 0.75
4 0 1 2 3
4 4 3 5 6
4 7 8 9 10
4 11 12 4 13
4 12 0 3 4
4 10 9 0 12
